<?xml version="1.0" encoding="iso-8859-1"?>
<!-- Uploaded to: SVG Repo, www.svgrepo.com, Generator: SVG Repo Mixer Tools -->
<svg height="800px" width="800px" version="1.1" id="Layer_1" xmlns="http://www.w3.org/2000/svg" xmlns:xlink="http://www.w3.org/1999/xlink" 
	 viewBox="0 0 408.76 408.76" xml:space="preserve">
<g>
	<path style="fill:#FFBE00;" d="M204.385,408.76c-58.121,0-113.674-24.867-152.417-68.227
		C18.46,303.057,0.005,254.703,0.005,204.381C0.005,91.685,91.69,0,204.385,0c50.317,0,98.674,18.455,136.164,51.964
		c43.346,38.762,68.205,94.314,68.205,152.417C408.755,317.076,317.076,408.76,204.385,408.76"/>
	<path style="fill:#F4502A;" d="M377.757,204.377c0,18.08-2.77,35.522-7.909,51.901c-20.39,65.09-78.11,113.659-148.081,120.609
		c-5.721,0.582-11.51,0.872-17.38,0.872c-2.129,0-4.24-0.041-6.351-0.12c-1.599-0.061-3.189-0.141-4.779-0.24
		c-46.901-2.96-88.739-24.591-118.171-57.521c-0.259-0.29-0.519-0.589-0.789-0.879c-26.951-30.562-43.29-70.681-43.29-114.622
		c0-95.749,77.619-173.379,173.379-173.379c43.95,0,84.069,16.35,114.631,43.29c0.29,0.27,0.589,0.53,0.879,0.791
		c32.931,29.459,54.551,71.289,57.509,118.198c0.102,1.572,0.181,3.15,0.231,4.731C377.717,200.117,377.757,202.248,377.757,204.377
		"/>
	<path style="fill:#C29100;" d="M91.094,335.619c0.025,0.021,0.048,0.041,0.073,0.063C91.143,335.661,91.119,335.64,91.094,335.619
		 M74.329,319.032c5.139,5.824,10.663,11.298,16.533,16.386c-5.584-4.842-10.852-10.032-15.776-15.541
		C74.838,319.599,74.588,319.312,74.329,319.032 M65.386,308.026c0.023,0.031,0.043,0.057,0.066,0.088
		C65.43,308.085,65.409,308.056,65.386,308.026 M65.057,307.584c0.032,0.043,0.065,0.087,0.097,0.131
		C65.122,307.671,65.09,307.628,65.057,307.584 M64.735,307.149c0.064,0.087,0.125,0.169,0.189,0.256
		C64.861,307.319,64.799,307.235,64.735,307.149 M64.478,306.799c0.052,0.07,0.103,0.141,0.155,0.211
		C64.581,306.94,64.529,306.869,64.478,306.799 M64.178,306.389c0.073,0.1,0.145,0.199,0.218,0.299
		C64.324,306.589,64.25,306.488,64.178,306.389 M63.872,305.968c0.076,0.105,0.149,0.205,0.225,0.31
		C64.022,306.175,63.947,306.071,63.872,305.968 M63.598,305.588c0.072,0.1,0.147,0.204,0.219,0.303
		C63.744,305.791,63.671,305.689,63.598,305.588 M63.312,305.19c0.084,0.117,0.168,0.234,0.252,0.351
		C63.479,305.424,63.396,305.307,63.312,305.19 M144.043,41.788C78.037,66.293,31.006,129.84,31.006,204.37
		c0,37.585,11.952,72.374,32.272,100.772c-20.319-28.401-32.27-63.186-32.27-100.765C31.008,129.848,78.037,66.296,144.043,41.788"
		/>
	<path style="fill:#BA3D20;" d="M204.385,30.999c-21.222,0-41.55,3.811-60.343,10.788C78.037,66.296,31.008,129.848,31.008,204.377
		c0,37.579,11.951,72.364,32.27,100.765c0.011,0.015,0.024,0.033,0.034,0.048c0.084,0.117,0.168,0.234,0.252,0.351
		c0.012,0.017,0.022,0.03,0.034,0.047c0.073,0.101,0.146,0.203,0.219,0.303c0.018,0.024,0.038,0.052,0.055,0.076
		c0.075,0.103,0.15,0.207,0.225,0.31c0.027,0.037,0.055,0.075,0.081,0.112c0.072,0.099,0.146,0.2,0.218,0.299
		c0.027,0.036,0.055,0.075,0.082,0.111c0.052,0.07,0.103,0.141,0.155,0.211c0.034,0.046,0.068,0.093,0.102,0.139
		c0.064,0.086,0.125,0.17,0.189,0.256c0.043,0.058,0.09,0.121,0.133,0.179c0.033,0.044,0.065,0.087,0.097,0.131
		c0.077,0.104,0.155,0.208,0.232,0.312c0.022,0.03,0.044,0.058,0.066,0.088c2.812,3.759,5.776,7.403,8.877,10.918
		c0.259,0.28,0.509,0.567,0.757,0.845c4.924,5.509,10.192,10.699,15.776,15.541c0.077,0.067,0.155,0.134,0.232,0.201
		c0.024,0.021,0.048,0.042,0.073,0.063c0.43,0.371,0.864,0.742,1.298,1.109C66.936,306.59,51.546,267.55,51.546,224.91
		c0-95.749,77.619-173.37,173.379-173.37c42.629,0,81.68,15.392,111.87,40.921C305.004,54.871,257.485,30.999,204.385,30.999"/>
	<path style="fill:#BA3D20;" d="M294.658,115.037l-31.35,33.801l-33.631-33.631l-32.809,32.322l-32.381-32.381l-50.64,49.63
		l21.011,21.011l-20.691,43.669l18.01,18.01l-17.8,46.52l83.659,83.65c2.111,0.079,4.221,0.12,6.351,0.12
		c5.87,0,11.66-0.29,17.38-0.872c69.97-6.949,127.69-55.519,148.081-120.609c5.139-16.38,7.909-33.821,7.909-51.901
		c0-2.129-0.041-4.26-0.12-6.369l0,0L294.658,115.037"/>
	<path style="fill:#FFFFFF;" d="M158.883,112.714h-39.276c-4.25,0-7.695,3.445-7.695,7.695v39.276c0,4.25,3.445,7.695,7.695,7.695
		h39.276c4.25,0,7.695-3.445,7.695-7.695v-39.276C166.578,116.159,163.133,112.714,158.883,112.714z"/>
	<path style="fill:#FFFFFF;" d="M224.018,112.714h-39.276c-4.25,0-7.695,3.445-7.695,7.695v39.276c0,4.25,3.445,7.695,7.695,7.695
		h39.276c4.25,0,7.695-3.445,7.695-7.695v-39.276C231.713,116.159,228.268,112.714,224.018,112.714z"/>
	<path style="fill:#FFFFFF;" d="M289.154,112.714h-39.276c-4.25,0-7.695,3.445-7.695,7.695v39.276c0,4.25,3.445,7.695,7.695,7.695
		h39.276c4.25,0,7.695-3.445,7.695-7.695v-39.276C296.849,116.159,293.404,112.714,289.154,112.714z"/>
	<path style="fill:#FFFFFF;" d="M158.883,177.047h-39.276c-4.25,0-7.695,3.445-7.695,7.695v39.276c0,4.25,3.445,7.695,7.695,7.695
		h39.276c4.25,0,7.695-3.445,7.695-7.695v-39.276C166.578,180.492,163.133,177.047,158.883,177.047z"/>
	<path style="fill:#FFFFFF;" d="M224.018,177.047h-39.276c-4.25,0-7.695,3.445-7.695,7.695v39.276c0,4.25,3.445,7.695,7.695,7.695
		h39.276c4.25,0,7.695-3.445,7.695-7.695v-39.276C231.713,180.492,228.268,177.047,224.018,177.047z"/>
	<path style="fill:#FFFFFF;" d="M289.154,177.047h-39.276c-4.25,0-7.695,3.445-7.695,7.695v39.276c0,4.25,3.445,7.695,7.695,7.695
		h39.276c4.25,0,7.695-3.445,7.695-7.695v-39.276C296.849,180.492,293.404,177.047,289.154,177.047z"/>
	<path style="fill:#FFFFFF;" d="M158.883,241.38h-39.276c-4.25,0-7.695,3.445-7.695,7.695v39.276c0,4.25,3.445,7.695,7.695,7.695
		h39.276c4.25,0,7.695-3.445,7.695-7.695v-39.276C166.578,244.825,163.133,241.38,158.883,241.38z"/>
	<path style="fill:#FFFFFF;" d="M224.018,241.38h-39.276c-4.25,0-7.695,3.445-7.695,7.695v39.276c0,4.25,3.445,7.695,7.695,7.695
		h39.276c4.25,0,7.695-3.445,7.695-7.695v-39.276C231.713,244.825,228.268,241.38,224.018,241.38z"/>
	<path style="fill:#FFFFFF;" d="M289.154,241.38h-39.276c-4.25,0-7.695,3.445-7.695,7.695v39.276c0,4.25,3.445,7.695,7.695,7.695
		h39.276c4.25,0,7.695-3.445,7.695-7.695v-39.276C296.849,244.825,293.404,241.38,289.154,241.38z"/>
</g>
</svg>